<?xml version="1.0" standalone="no"?>
<!DOCTYPE svg PUBLIC "-//W3C//DTD SVG 20010904//EN"
 "http://www.w3.org/TR/2001/REC-SVG-20010904/DTD/svg10.dtd">
<svg version="1.0" xmlns="http://www.w3.org/2000/svg"
 width="500.000000pt" height="500.000000pt" viewBox="0 0 500.000000 500.000000"
 preserveAspectRatio="xMidYMid meet">
<metadata>
Created by potrace 1.14, written by Peter Selinger 2001-2017
</metadata>
<g transform="translate(0.000000,500.000000) scale(0.100000,-0.100000)"
fill="#000000" stroke="none">
<path d="M0 2500 l0 -2500 2500 0 2500 0 0 2500 0 2500 -2500 0 -2500 0 0
-2500z m1867 310 c271 -624 523 -1204 559 -1288 37 -84 70 -149 74 -145 4 4
260 585 571 1290 l564 1283 328 0 327 0 0 -1635 0 -1635 -255 0 -255 0 -2
1244 -3 1244 -537 -1242 -536 -1241 -207 0 -207 0 -537 1264 -536 1263 -3
-1266 -2 -1266 -255 0 -255 0 0 1635 0 1635 337 -2 337 -3 493 -1135z"/>
</g>
</svg>
